HIERARCHY
ROOT Hips
{
	OFFSET 0.000000 0.000000 0.000000
	CHANNELS 6 Xposition Yposition Zposition Zrotation Yrotation Xrotation 
	JOINT LHipJoint
	{
		OFFSET 0.000000 0.000000 0.000000
		CHANNELS 3 Zrotation Yrotation Xrotation
		JOINT LeftUpLeg
		{
			OFFSET 1.363060 -1.794630 0.839290
			CHANNELS 3 Zrotation Yrotation Xrotation
			JOINT LeftLeg
			{
				OFFSET 2.448110 -6.726130 0.000000
				CHANNELS 3 Zrotation Yrotation Xrotation
				JOINT LeftFoot
				{
					OFFSET 2.562200 -7.039590 0.000000
					CHANNELS 3 Zrotation Yrotation Xrotation
					JOINT LeftToeBase
					{
						OFFSET 0.157640 -0.433110 2.322550
						CHANNELS 3 Zrotation Yrotation Xrotation
						End Site
						{
							OFFSET 0.000000 0.000000 0.000000
						}
					}
				}
			}
		}
	}
	JOINT RHipJoint
	{
		OFFSET 0.000000 0.000000 0.000000
		CHANNELS 3 Zrotation Yrotation Xrotation
		JOINT RightUpLeg
		{
			OFFSET -1.305520 -1.794630 0.839290
			CHANNELS 3 Zrotation Yrotation Xrotation
			JOINT RightLeg
			{
				OFFSET -2.542530 -6.985550 0.000000
				CHANNELS 3 Zrotation Yrotation Xrotation
				JOINT RightFoot
				{
					OFFSET -2.568260 -7.056230 0.000000
					CHANNELS 3 Zrotation Yrotation Xrotation
					JOINT RightToeBase
					{
						OFFSET -0.164730 -0.452590 2.363150
						CHANNELS 3 Zrotation Yrotation Xrotation
						End Site
						{
							OFFSET 0.000000 0.000000 0.000000
						}
					}
				}
			}
		}
	}
	JOINT LowerBack
	{
		OFFSET 0.000000 0.000000 0.000000
		CHANNELS 3 Zrotation Yrotation Xrotation
		JOINT Spine
		{
			OFFSET 0.028270 2.035590 -0.193380
			CHANNELS 3 Zrotation Yrotation Xrotation
			JOINT Spine1
			{
				OFFSET 0.056720 2.048850 -0.042750
				CHANNELS 3 Zrotation Yrotation Xrotation
				JOINT Neck
				{
					OFFSET 0.000000 0.000000 0.000000
					CHANNELS 3 Zrotation Yrotation Xrotation
					JOINT Neck1
					{
						OFFSET -0.054170 1.746240 0.172020
						CHANNELS 3 Zrotation Yrotation Xrotation
						JOINT Head
						{
							OFFSET 0.104070 1.761360 -0.123970
							CHANNELS 3 Zrotation Yrotation Xrotation
							End Site
							{
								OFFSET 0.000000 0.000000 0.000000
							}
						}
					}
				}
				JOINT LeftShoulder
				{
					OFFSET 0.000000 0.000000 0.000000
					CHANNELS 3 Zrotation Yrotation Xrotation
					JOINT LeftArm
					{
						OFFSET 3.362410 1.200890 -0.311210
						CHANNELS 3 Zrotation Yrotation Xrotation
						JOINT LeftForeArm
						{
							OFFSET 4.983000 -0.000000 -0.000000
							CHANNELS 3 Zrotation Yrotation Xrotation
							JOINT LeftHand
							{
								OFFSET 3.483560 -0.000000 -0.000000
								CHANNELS 3 Zrotation Yrotation Xrotation
								JOINT LeftFingerBase
								{
									OFFSET 0.000000 0.000000 0.000000
									CHANNELS 3 Zrotation Yrotation Xrotation
									JOINT LeftHandIndex1
									{
										OFFSET 0.715260 -0.000000 -0.000000
										CHANNELS 3 Zrotation Yrotation Xrotation
										End Site
										{
											OFFSET 0.000000 0.000000 0.000000
										}
									}
								}
								JOINT LThumb
								{
									OFFSET 0.000000 0.000000 0.000000
									CHANNELS 3 Zrotation Yrotation Xrotation
									End Site
									{
										OFFSET 0.000000 0.000000 0.000000
									}
								}
							}
						}
					}
				}
				JOINT RightShoulder
				{
					OFFSET 0.000000 0.000000 0.000000
					CHANNELS 3 Zrotation Yrotation Xrotation
					JOINT RightArm
					{
						OFFSET -3.136600 1.374050 -0.404650
						CHANNELS 3 Zrotation Yrotation Xrotation
						JOINT RightForeArm
						{
							OFFSET -5.241900 -0.000000 -0.000000
							CHANNELS 3 Zrotation Yrotation Xrotation
							JOINT RightHand
							{
								OFFSET -3.444170 -0.000000 -0.000000
								CHANNELS 3 Zrotation Yrotation Xrotation
								JOINT RightFingerBase
								{
									OFFSET 0.000000 0.000000 0.000000
									CHANNELS 3 Zrotation Yrotation Xrotation
									JOINT RightHandIndex1
									{
										OFFSET -0.622530 -0.000000 -0.000000
										CHANNELS 3 Zrotation Yrotation Xrotation
										End Site
										{
											OFFSET 0.000000 0.000000 0.000000
										}
									}
								}
								JOINT RThumb
								{
									OFFSET 0.000000 0.000000 0.000000
									CHANNELS 3 Zrotation Yrotation Xrotation
									End Site
									{
										OFFSET 0.000000 0.000000 0.000000
									}
								}
							}
						}
					}
				}
			}
		}
	}
}
MOTION
Frames: 6
Frame Time: 0.008333
4.720788 17.716159 -9.471364 -5.388208 10.311669 1.781442 11.256462 2.716566 -0.534662 -23.037177 -19.186194 -7.675107 1.574542 9.999968 28.686284 1.299761 -3.340313 -22.919275 9.881400 -17.342600 -59.091200 -15.360829 -3.998247 -6.003243 38.350513 -7.637541 8.926088 0.982916 -0.228005 3.871786 -1.661955 -2.580916 -17.547000 -8.742400 16.639100 -55.194900 5.585894 1.537047 5.096893 1.370417 2.357778 -1.963227 -3.710766 0.780351 -0.921939 2.148592 2.253117 -22.334961 5.091427 2.017251 16.484688 0.281400 1.655500 12.861200 2.718714 -0.525404 0.050023 -86.177379 4.056633 33.297139 22.323629 -29.887667 -5.799722 -0.419130 1.312549 -32.792114 37.808079 58.385529 32.760200 -7.125000 0.000000 0.000000 175.022500 2.909700 4.736600 -3.301591 0.578561 -0.393609 86.227565 -5.781148 40.954324 -34.218010 45.547838 -13.553611 0.168986 -0.355378 -14.956108 -21.549656 10.942948 -4.461900 7.125000 0.000000 0.000000 3.861300 -17.808000 2.501100 
4.709557 17.714731 -9.477645 -5.316953 10.478773 1.691687 11.257666 2.712740 -0.523635 -23.107353 -19.282395 -7.607344 1.576620 9.999426 28.687791 1.284099 -3.376092 -22.826153 9.896600 -17.351300 -59.142100 -15.352383 -3.994334 -6.023515 38.259594 -7.857121 8.986618 0.981068 -0.223860 3.874261 -1.660966 -2.529377 -17.600455 -8.718700 16.623200 -55.112100 5.533387 1.512619 5.130462 1.338648 2.328965 -1.976846 -3.740332 0.765147 -0.952563 2.143596 2.205309 -22.320193 5.148846 1.949379 16.571415 0.302100 1.637300 12.897000 2.707784 -0.513993 0.048472 -86.414341 4.086729 33.269095 22.763928 -30.421452 -6.018522 -0.401133 1.299215 -31.796177 36.668340 58.190830 31.648500 -7.125000 0.000000 0.000000 174.740500 2.408400 5.055500 -3.308239 0.581785 -0.392235 86.378416 -5.649985 40.469144 -33.600487 45.085917 -13.124372 0.180958 -0.351042 -13.647616 -20.592385 11.762157 -4.549400 7.125000 0.000000 0.000000 4.541000 -17.029500 3.021600 
4.696614 17.713113 -9.484783 -5.358983 10.624143 1.624267 11.259460 2.702259 -0.512191 -23.037437 -19.491977 -7.536168 1.575472 9.999900 28.687109 1.287090 -3.328856 -22.823411 9.881400 -17.342600 -59.091100 -15.355741 -3.993831 -6.033065 38.320864 -8.025483 9.003490 0.985477 -0.228447 3.875964 -1.661061 -2.496612 -17.653324 -8.673300 16.592800 -54.953300 5.563752 1.510858 5.136465 1.346590 2.328551 -2.010521 -3.755237 0.763502 -1.002832 2.177340 2.158817 -22.248127 5.119031 1.877632 16.651373 0.274300 1.610000 12.921300 2.704171 -0.510433 0.048286 -86.507049 4.015221 33.558738 23.178746 -30.916527 -6.228938 -0.388474 1.291133 -31.294074 36.106605 57.964252 31.065000 -7.125000 0.000000 0.000000 174.642400 2.049500 5.185500 -3.309555 0.581534 -0.393541 86.391846 -5.654837 40.079166 -33.183395 44.761841 -12.835654 0.189587 -0.352140 -12.487726 -19.747407 11.979613 -4.427500 7.125000 0.000000 0.000000 5.123700 -16.876600 3.429400 
4.684051 17.712066 -9.490779 -5.412005 10.741521 1.560646 11.262237 2.689618 -0.499927 -22.967372 -19.744736 -7.447292 1.570745 10.003233 28.689532 1.303618 -3.187450 -22.867660 9.868800 -17.335400 -59.049000 -15.359603 -3.992027 -6.041572 38.392184 -8.164907 9.018961 0.991796 -0.232936 3.876227 -1.666198 -2.485015 -17.736427 -8.566200 16.520300 -54.577600 5.589011 1.516137 5.117064 1.364285 2.334839 -2.030660 -3.746630 0.765693 -1.021915 2.162411 2.103599 -22.204348 5.146255 1.806266 16.734453 0.282200 1.585400 12.949500 2.700321 -0.503647 0.048959 -86.491612 3.875319 33.972024 23.595841 -31.405386 -6.443146 -0.379741 1.284816 -31.117965 35.783304 57.646694 30.674200 -7.125000 0.000000 0.000000 174.647100 1.675100 5.217200 -3.313384 0.584980 -0.395295 86.323419 -5.668069 39.834261 -32.851232 44.497220 -12.606957 0.197078 -0.355112 -11.458751 -18.945209 12.008794 -4.248200 7.125000 0.000000 0.000000 5.672200 -16.914800 3.795300 
4.673963 17.711876 -9.495728 -5.422801 10.814653 1.466850 11.261751 2.680774 -0.489828 -22.966640 -19.929553 -7.314592 1.570150 10.003099 28.698732 1.314382 -3.106614 -22.896069 9.840200 -17.319000 -58.953000 -15.351682 -3.983744 -6.057520 38.377637 -8.309666 9.123862 0.995478 -0.228914 3.875740 -1.672833 -2.418988 -17.895959 -8.391200 16.399600 -53.959800 5.574957 1.522139 5.134873 1.364087 2.345577 -2.034511 -3.737299 0.769199 -1.033075 2.063818 2.023471 -22.226740 5.347329 1.713372 16.805767 0.382200 1.565300 12.978300 2.689321 -0.486296 0.048435 -86.457004 3.750127 34.377678 24.024072 -31.898368 -6.666231 -0.373750 1.278664 -31.060739 35.551961 57.402603 30.390200 -7.125000 0.000000 0.000000 174.653400 1.393100 5.238000 -3.324066 0.599508 -0.394697 86.290730 -5.654528 39.613844 -32.512223 44.226046 -12.371980 0.207459 -0.357627 -10.328110 -17.974098 12.294765 -4.111600 7.125000 0.000000 0.000000 6.338900 -16.699100 4.276600 
4.665303 17.712542 -9.502770 -5.431651 10.887153 1.376529 11.259879 2.681925 -0.488659 -22.941095 -19.946865 -7.250535 1.579939 9.998334 28.710354 1.294408 -3.236103 -22.815984 9.767500 -17.277000 -58.708500 -15.348825 -3.981160 -6.065739 38.385021 -8.420908 9.176506 0.996520 -0.228813 3.878650 -1.669305 -2.376720 -17.913041 -8.380200 16.391900 -53.920900 5.605890 1.546988 5.203465 1.331437 2.388309 -2.062399 -3.801460 0.785903 -1.097915 2.005026 1.933321 -22.241198 5.537153 1.592331 16.871461 0.465800 1.536200 13.005200 2.678374 -0.469749 0.046441 -86.397176 3.641073 34.830118 24.426836 -32.354943 -6.879687 -0.370576 1.271517 -30.979883 35.165352 57.243054 29.990500 -7.125000 0.000000 0.000000 174.580000 1.144100 5.334800 -3.335273 0.614146 -0.394362 86.394316 -5.632218 38.826524 -32.102859 43.898655 -12.078653 0.229860 -0.365526 -8.095461 -15.934820 12.914766 -3.805400 7.125000 0.000000 0.000000 7.728300 -16.224600 5.310200 
